<svg id="Capa_1" enable-background="new 0 0 512 512" height="512" viewBox="0 0 512 512" width="512" xmlns="http://www.w3.org/2000/svg"><g><g><path d="m308.878 191.961c9.044-10.24 14.543-23.685 14.543-38.421 0-27.232-18.747-50.078-44.037-56.358 9.404-10.32 15.139-24.042 15.139-39.104 0-32.076-26.002-58.078-58.078-58.078h-118.92c-32.075 0-58.077 26.002-58.077 58.077 0 15.062 5.735 28.784 15.139 39.104-25.29 6.28-44.037 29.126-44.037 56.358 0 14.736 5.499 28.181 14.543 38.421-20.532 11.183-34.465 32.953-34.465 57.979 0 36.439 29.54 65.979 65.978 65.979h200.759c36.439 0 65.978-29.54 65.978-65.979 0-25.025-13.934-46.794-34.465-57.978z" fill="#fea95c"/><path d="m85.547 296.591c11.943 11.943 28.446 19.327 46.658 19.327h-55.599c-18.212 0-34.715-7.384-46.645-19.327-11.943-11.943-19.327-28.446-19.327-46.658 0-25.026 13.932-46.785 34.461-57.98-4.521-5.117-8.156-11.044-10.664-17.516-2.508-6.484-3.875-13.539-3.875-20.897 0-27.23 18.744-50.077 44.036-56.359-4.699-5.155-8.498-11.171-11.107-17.769-2.609-6.611-4.04-13.805-4.04-21.341 0-32.068 26.001-58.069 58.082-58.069h55.599c-32.081 0-58.082 26.001-58.082 58.069 0 7.536 1.431 14.729 4.04 21.341 2.609 6.599 6.396 12.614 11.095 17.769-25.292 6.282-44.036 29.13-44.036 56.359 0 7.358 1.38 14.413 3.875 20.897 2.508 6.472 6.143 12.399 10.664 17.516-20.53 11.196-34.461 32.954-34.461 57.98-.001 18.213 7.383 34.715 19.326 46.658z" fill="#fe9738"/><path d="m176.985 276.656c-35.799 0-64.82 29.021-64.82 64.82v35.03h129.639v-35.03c.001-35.8-29.02-64.82-64.819-64.82z" fill="#8ac9fe"/><path d="m194.045 278.922c-27.521 7.485-47.76 32.65-47.76 62.553v35.031h-34.12v-35.031c0-35.804 29.028-64.82 64.82-64.82 5.902 0 11.627.785 17.06 2.267z" fill="#60b7ff"/><path d="m176.982 107.872v-5.965c-7.51 7.105-17.642 11.449-28.775 11.449-12.475 0-23.684-5.446-31.359-14.096-11.715 13.767-18.795 31.612-18.795 51.116v18.978h-1.524c-11.729 0-21.238 9.509-21.238 21.238 0 11.729 9.509 21.238 21.238 21.238h5.579c7.953 23.794 26.93 42.537 50.87 50.171v18.961c0 13.258 10.748 24.006 24.006 24.006 13.258 0 24.006-10.748 24.006-24.006v-18.965c31.843-10.162 54.919-39.979 54.919-75.197-43.592 0-78.927-35.348-78.927-78.928z" fill="#ffdfcf" stroke="#ffdfcf" stroke-miterlimit="10"/><path d="m200.992 264.023v16.946c0 6.636-2.685 12.627-7.029 16.971s-10.335 7.029-16.971 7.029c-13.26 0-24.013-10.74-24.013-24v-18.96c-23.937-7.637-42.909-26.381-50.863-50.179h-5.585c-5.864 0-11.171-2.381-15.021-6.219-3.838-3.85-6.219-9.157-6.219-15.021 0-11.728 9.511-21.239 21.239-21.239h1.532v-18.971c0-19.504 7.08-37.349 18.795-51.116 7.675 8.65 18.884 14.096 31.359 14.096.735 0 1.469-.025 2.204-.063-7.599 12.12-11.981 26.457-11.981 41.807v31.701c0 21.796 8.84 41.529 23.126 55.815 10.601 10.6 24.203 18.199 39.427 21.403z" fill="#ffcebf"/><path d="m176.985 223.685c-6.7 0-13.4-1.679-19.508-5.036-3.739-2.056-5.104-6.754-3.048-10.493s6.753-5.104 10.493-3.048c7.553 4.153 16.572 4.152 24.126 0 3.739-2.055 8.438-.691 10.493 3.048 2.056 3.739.691 8.437-3.048 10.493-6.108 3.357-12.808 5.036-19.508 5.036z" fill="#fe646f"/><path d="m153.258 179.607c-4.267 0-7.726-3.459-7.726-7.726v-15.162c0-4.267 3.459-7.726 7.726-7.726s7.726 3.459 7.726 7.726v15.162c0 4.266-3.459 7.726-7.726 7.726z" fill="#685e68"/></g><g><path d="m342.773 287.772v55.04c0 7.01-5.684 12.688-12.688 12.688-7.01 0-12.688-5.678-12.688-12.688v-49.788l-10.785-10.778-11.66-11.66c-4.955-4.961-4.955-12.992 0-17.947s12.986-4.955 17.941 0l26.162 26.162c2.379 2.379 3.718 5.602 3.718 8.971z" fill="#7a6d79"/><path d="m340.879 349.475c-2.233 3.616-6.23 6.027-10.797 6.027-7.004 0-12.688-5.678-12.688-12.688v-49.788l-22.439-22.439c-4.955-4.961-4.955-12.992 0-17.947 2.576-2.576 5.982-3.813 9.357-3.711-3.026 4.898-2.417 11.4 1.827 15.644l22.445 22.445v49.781c.001 6.877 5.476 12.472 12.295 12.676z" fill="#685e68"/><path d="m325.561 265.308c-2.709 8.602-9.966 15.187-18.949 16.938l-11.66-11.66c-4.955-4.961-4.955-12.992 0-17.947s12.986-4.955 17.941 0z" fill="#685e68"/><path d="m377.284 342.812h-97.178c-6.549 0-11.858 5.309-11.858 11.858v9.976c0 6.549 5.309 11.858 11.858 11.858l45.25 15.075 51.928-15.075c6.549 0 11.858-5.309 11.858-11.858v-9.976c0-6.549-5.309-11.858-11.858-11.858z" fill="#fe646f"/><path d="m303.526 376.506h-23.416c-6.553 0-11.863-5.31-11.863-11.857v-9.979c0-6.547 5.31-11.857 11.863-11.857h23.416c-6.553 0-11.857 5.31-11.857 11.857v9.979c0 6.547 5.304 11.857 11.857 11.857z" fill="#fd4755"/><circle cx="292.953" cy="250.641" fill="#7a6d79" r="24.894"/><path d="m301.39 274.069c-2.639.945-5.481 1.465-8.444 1.465-13.747 0-24.887-11.146-24.887-24.894 0-13.747 11.14-24.894 24.887-24.894 2.963 0 5.805.52 8.444 1.465-9.598 3.458-16.456 12.644-16.456 23.428 0 10.787 6.858 19.973 16.456 23.43z" fill="#685e68"/></g><path d="m20.555 406.653h470.891v105.347h-470.891z" fill="#7a6d79"/><path d="m20.555 406.653h470.891v34.258h-470.891z" fill="#685e68"/><path d="m20.555 406.653h31.425v105.347h-31.425z" fill="#685e68"/><path d="m491.445 417.615h-470.89c-11.352 0-20.555-9.202-20.555-20.554 0-11.352 9.203-20.555 20.555-20.555h470.891c11.352 0 20.555 9.203 20.555 20.555-.001 11.352-9.204 20.554-20.556 20.554z" fill="#fea95c"/><path d="m73.998 417.613h-53.446c-11.353 0-20.552-9.2-20.552-20.552 0-5.676 2.297-10.817 6.016-14.536s8.859-6.016 14.536-6.016h53.446c-5.676 0-10.817 2.297-14.536 6.016s-6.016 8.859-6.016 14.536c0 11.352 9.199 20.552 20.552 20.552z" fill="#fe9738"/><g><path d="m494.88 33.295v75.914c0 18.389-14.907 33.295-33.295 33.295h-77.789l-21.438 38.725c-4.945 8.932-18.533 5.419-18.533-4.79v-33.934h-31.822c-18.389 0-33.295-14.907-33.295-33.295v-75.915c-.001-18.388 14.905-33.295 33.294-33.295h149.582c18.389 0 33.296 14.907 33.296 33.295z" fill="#d9b1ee"/><path d="m335.995 142.505h-23.993c-18.389 0-33.295-14.907-33.295-33.295v-75.915c0-18.388 14.906-33.295 33.295-33.295h23.993c-18.389 0-33.295 14.907-33.295 33.295v75.914c0 18.389 14.906 33.296 33.295 33.296z" fill="#cb97e7"/><g fill="#f9f7f8"><path d="m425.328 38.144h-109.282c-4.268 0-7.726-3.459-7.726-7.726s3.459-7.726 7.726-7.726h109.282c4.268 0 7.726 3.459 7.726 7.726s-3.458 7.726-7.726 7.726z"/><path d="m425.328 71.081h-109.282c-4.268 0-7.726-3.459-7.726-7.726s3.459-7.726 7.726-7.726h109.282c4.268 0 7.726 3.459 7.726 7.726s-3.458 7.726-7.726 7.726z"/><path d="m375.655 104.018h-59.609c-4.268 0-7.726-3.459-7.726-7.726s3.459-7.726 7.726-7.726h59.609c4.268 0 7.726 3.459 7.726 7.726 0 4.266-3.458 7.726-7.726 7.726z"/></g></g></g></svg>