<svg xmlns="http://www.w3.org/2000/svg" viewBox="0 0 182.61 68.06"><defs><style>.cls-1{fill:#f89938;}.cls-2{fill:#1694a5;}.cls-3{fill:#ee2639;}.cls-4{font-size:34px;fill:#fff;font-family:Poppins-SemiBold, Poppins;font-weight:600;}.cls-5,.cls-6,.cls-7,.cls-8{fill:#d0dfe6;font-family:FuturaPT-ExtraBold, Futura PT;font-weight:800;}.cls-6{letter-spacing:-0.01em;}.cls-7{letter-spacing:0em;}.cls-8{letter-spacing:0.01em;}</style></defs><title>esivent-png</title><g id="Layer_2" data-name="Layer 2"><g id="logo"><path class="cls-1" d="M33.42,33.24c1.8,0,2.73.72,2.5,2.29-1,6.71-2,13.43-3.12,20.12-.4,2.35-3,3.11-4.85,1.59Q22.75,53,17.61,48.67c-1.69-1.43-1.68-2.82.09-4.17q6.8-5.22,13.68-10.32A9.72,9.72,0,0,1,33.42,33.24Z"/><path class="cls-2" d="M9.45,40.82c-3-.17-4.47-1.35-4-3.93,2-11,4-22.1,6.28-33.1.79-3.86,5.07-5,8.1-2.36q8.4,7.29,16.64,14.75c2.72,2.44,2.62,4.74-.39,6.89q-11.53,8.25-23.19,16.3A16.6,16.6,0,0,1,9.45,40.82Z"/><path class="cls-3" d="M1.89,66C.51,65.89-.19,65.34,0,64.14,1,59,2,53.85,3.13,48.73a2.22,2.22,0,0,1,3.79-1.06c2.58,2.29,5.14,4.62,7.68,7,1.26,1.15,1.2,2.22-.21,3.21Q9,61.63,3.5,65.33A8.07,8.07,0,0,1,1.89,66Z"/><text class="cls-4" transform="translate(43.35 47.89)"> <tspan class="cls-5" x="8.09" y="0">esi</tspan><tspan class="cls-6" x="56.47" y="0">v</tspan><tspan class="cls-7" x="76.23" y="0">e</tspan><tspan class="cls-8" x="97.07" y="0">n</tspan><tspan class="cls-5" x="118.86" y="0">t </tspan></text></g></g></svg>